<svg width="24" height="22" viewBox="0 0 24 22" fill="none" xmlns="http://www.w3.org/2000/svg">
  <path
    d="M23.2711 8.41885C22.3683 6.94057 21.2296 5.6201 19.9001 4.50985L22.7001 1.70985C22.8822 1.52125 22.983 1.26864 22.9807 1.00645C22.9784 0.744251 22.8733 0.493438 22.6879 0.30803C22.5025 0.122622 22.2516 0.0174529 21.9895 0.0151745C21.7273 0.0128961 21.4747 0.113691 21.2861 0.295849L18.2411 3.34485C16.3534 2.22367 14.1955 1.63931 12.0001 1.65485C5.80905 1.65485 2.28105 5.89285 0.729051 8.41885C0.249579 9.19435 -0.00439453 10.0881 -0.00439453 10.9998C-0.00439453 11.9116 0.249579 12.8053 0.729051 13.5808C1.63181 15.0591 2.77054 16.3796 4.10005 17.4898L1.30005 20.2899C1.20454 20.3821 1.12836 20.4924 1.07595 20.6144C1.02354 20.7364 0.995955 20.8677 0.994801 21.0004C0.993647 21.1332 1.01895 21.2649 1.06923 21.3878C1.11951 21.5107 1.19376 21.6224 1.28766 21.7162C1.38155 21.8101 1.4932 21.8844 1.6161 21.9347C1.73899 21.985 1.87067 22.0103 2.00345 22.0091C2.13623 22.0079 2.26745 21.9804 2.38946 21.9279C2.51146 21.8755 2.6218 21.7994 2.71405 21.7038L5.76605 18.6518C7.65132 19.7728 9.80672 20.3582 12.0001 20.3448C18.1911 20.3448 21.7191 16.1068 23.2711 13.5808C23.7505 12.8053 24.0045 11.9116 24.0045 10.9998C24.0045 10.0881 23.7505 9.19435 23.2711 8.41885ZM2.43305 12.5338C2.14819 12.0729 1.9973 11.5417 1.9973 10.9998C1.9973 10.458 2.14819 9.9268 2.43305 9.46585C3.76705 7.29985 6.78205 3.65485 12.0001 3.65485C13.6603 3.64555 15.2973 4.04569 16.7661 4.81985L14.7531 6.83285C13.793 6.19545 12.642 5.90984 11.4953 6.02449C10.3486 6.13914 9.27692 6.64699 8.46205 7.46185C7.64719 8.27671 7.13935 9.34841 7.0247 10.4951C6.91005 11.6418 7.19565 12.7928 7.83305 13.7528L5.52305 16.0628C4.29815 15.0726 3.25289 13.8788 2.43305 12.5338ZM15.0001 10.9998C15.0001 11.7955 14.684 12.5586 14.1214 13.1212C13.5588 13.6838 12.7957 13.9998 12.0001 13.9998C11.5546 13.9981 11.1152 13.8956 10.7151 13.6998L14.7001 9.71485C14.8958 10.115 14.9983 10.5544 15.0001 10.9998ZM9.00005 10.9998C9.00005 10.2042 9.31612 9.44114 9.87873 8.87853C10.4413 8.31592 11.2044 7.99985 12.0001 7.99985C12.4455 8.00157 12.8849 8.10414 13.2851 8.29985L9.30005 12.2848C9.10434 11.8847 9.00178 11.4453 9.00005 10.9998ZM21.5671 12.5338C20.2331 14.6998 17.2181 18.3448 12.0001 18.3448C10.3398 18.3542 8.70282 17.954 7.23405 17.1798L9.24705 15.1668C10.2071 15.8042 11.3581 16.0899 12.5048 15.9752C13.6515 15.8606 14.7232 15.3527 15.538 14.5378C16.3529 13.723 16.8608 12.6513 16.9754 11.5046C17.0901 10.3579 16.8044 9.20692 16.1671 8.24685L18.4771 5.93685C19.7019 6.92713 20.7472 8.1209 21.5671 9.46585C21.8519 9.9268 22.0028 10.458 22.0028 10.9998C22.0028 11.5417 21.8519 12.0729 21.5671 12.5338Z"
    fill="#000" />
</svg>