<svg width="15" height="16" viewBox="0 0 15 16" fill="none" xmlns="http://www.w3.org/2000/svg">
<g clip-path="url(#clip0_21_2571)">
<path d="M14.8172 0.68348C14.7 0.56631 14.5411 0.500488 14.3754 0.500488C14.2096 0.500488 14.0507 0.56631 13.9335 0.68348L7.50035 7.1166L1.06723 0.68348C0.950025 0.56631 0.791082 0.500488 0.625355 0.500488C0.459627 0.500488 0.300685 0.56631 0.18348 0.68348C0.0663104 0.800685 0.000488281 0.959627 0.000488281 1.12535C0.000488281 1.29108 0.0663104 1.45003 0.18348 1.56723L6.6166 8.00035L0.18348 14.4335C0.0663104 14.5507 0.000488281 14.7096 0.000488281 14.8754C0.000488281 15.0411 0.0663104 15.2 0.18348 15.3172C0.300685 15.4344 0.459627 15.5002 0.625355 15.5002C0.791082 15.5002 0.950025 15.4344 1.06723 15.3172L7.50035 8.8841L13.9335 15.3172C14.0507 15.4344 14.2096 15.5002 14.3754 15.5002C14.5411 15.5002 14.7 15.4344 14.8172 15.3172C14.9344 15.2 15.0002 15.0411 15.0002 14.8754C15.0002 14.7096 14.9344 14.5507 14.8172 14.4335L8.3841 8.00035L14.8172 1.56723C14.9344 1.45003 15.0002 1.29108 15.0002 1.12535C15.0002 0.959627 14.9344 0.800685 14.8172 0.68348Z" fill="#000"/>
</g>
<defs>
<clipPath id="clip0_21_2571">
<rect width="15" height="15" fill="white" transform="translate(0 0.5)"/>
</clipPath>
</defs>
</svg>
