<svg width="28" height="24" viewBox="0 0 28 24" fill="none" xmlns="http://www.w3.org/2000/svg">
<path d="M9.99999 0C6.31809 0 3.33332 2.98477 3.33332 6.66667C3.33332 10.3486 6.31809 13.3333 9.99999 13.3333C13.6819 13.3333 16.6667 10.3486 16.6667 6.66667C16.6667 2.98477 13.6819 0 9.99999 0ZM5.99999 6.66667C5.99999 4.45753 7.79085 2.66667 9.99999 2.66667C12.2091 2.66667 14 4.45753 14 6.66667C14 8.87581 12.2091 10.6667 9.99999 10.6667C7.79085 10.6667 5.99999 8.87581 5.99999 6.66667Z" fill="#0F1828"/>
<path d="M20.5446 6.9577C20.1694 6.76645 19.7544 6.66675 19.3333 6.66675V4.00008C20.1755 4.00008 21.0056 4.19942 21.7559 4.58193C21.8385 4.62406 21.9199 4.66828 22 4.71453C22.6472 5.08818 23.2096 5.59425 23.6497 6.20074C24.1444 6.8823 24.4706 7.67129 24.6017 8.50316C24.7327 9.33502 24.665 10.1861 24.4039 10.9867C24.1428 11.7874 23.6959 12.5148 23.0996 13.1095C22.5034 13.7042 21.7748 14.1492 20.9734 14.4082C20.2604 14.6387 19.5078 14.7159 18.7647 14.6363C18.6728 14.6264 18.5809 14.6141 18.4893 14.5995C17.6584 14.4663 16.8708 14.1384 16.1908 13.6425L16.1894 13.6415L17.7614 11.4874C18.1015 11.7356 18.4956 11.8997 18.9113 11.9663C19.3271 12.033 19.7527 12.0002 20.1534 11.8707C20.554 11.7412 20.9183 11.5187 21.2164 11.2214C21.5145 10.924 21.738 10.5603 21.8685 10.16C21.9991 9.7597 22.0329 9.33418 21.9674 8.91826C21.9019 8.50234 21.7388 8.10785 21.4915 7.76708C21.2441 7.42632 20.9197 7.14896 20.5446 6.9577Z" fill="#0F1828"/>
<path d="M24.6641 24C24.6641 23.2999 24.5262 22.6068 24.2583 21.96C23.9904 21.3132 23.5978 20.7256 23.1028 20.2306C22.6078 19.7355 22.0201 19.3429 21.3733 19.075C20.7266 18.8071 20.0334 18.6692 19.3333 18.6692V16C20.2428 16 21.1445 16.1551 22 16.4575C22.1328 16.5045 22.2644 16.555 22.3948 16.609C23.3654 17.011 24.2473 17.6003 24.9902 18.3431C25.733 19.086 26.3223 19.9679 26.7244 20.9385C26.7784 21.0689 26.8289 21.2006 26.8758 21.3333C27.1783 22.1888 27.3333 23.0906 27.3333 24H24.6641Z" fill="#0F1828"/>
<path d="M19.3333 24H16.6667C16.6667 20.3181 13.6819 17.3333 9.99999 17.3333C6.31809 17.3333 3.33332 20.3181 3.33332 24H0.666656C0.666656 18.8453 4.84533 14.6667 9.99999 14.6667C15.1546 14.6667 19.3333 18.8453 19.3333 24Z" fill="#0F1828"/>
</svg>
